Coordinates
version=1
nRows=14
nColumns=42
inDegrees=yes

Units are S.I. units (second, meters, Newtons, ...)
If the header above contains a line with 'inDegrees', this indicates whether rotational values are in degrees (yes) or radians (no).

endheader
time	pelvis_tilt	pelvis_list	pelvis_rotation	pelvis_tx	pelvis_ty	pelvis_tz	hip_flexion_r	hip_adduction_r	hip_rotation_r	knee_angle_r	knee_adduction_r	knee_angle_r_beta	ankle_angle_r	subtalar_angle_r	mtp_angle_r	hip_flexion_l	hip_adduction_l	hip_rotation_l	knee_angle_l	knee_adduction_l	knee_angle_l_beta	ankle_angle_l	subtalar_angle_l	mtp_angle_l	lumbar_extension	lumbar_bending	lumbar_rotation	arm_flex_r	arm_add_r	arm_rot_r	elbow_flex_r	pro_sup_r	wrist_flex_r	wrist_dev_r	arm_flex_l	arm_add_l	arm_rot_l	elbow_flex_l	pro_sup_l	wrist_flex_l	wrist_dev_l
      0.00000000	     12.99153151	     -1.13612334	      6.55443948	     -2.59621057	      0.87885359	      0.17302375	    -27.47480773	      6.00192557	    -20.44980054	      1.50286796	      6.03476208	      0.02622999	     20.26080132	     36.20077645	     -9.57891407	     12.75817706	     -0.74568751	    -13.32956069	     26.62065872	     -7.64568381	      0.46461814	     19.53655965	     18.61347921	     -9.57891407	    -37.28643691	      4.76772042	      5.77089595	      7.16840115	    -19.92325214	      5.76528496	     47.90435209	     90.00000001	      0.00000000	      0.00000000	      5.31996217	    -13.77399763	      6.44387833	     43.69385176	     90.00000001	      0.00000000	      0.00000000
      0.01000000	     12.77637420	     -1.47598269	      6.72671162	     -2.58485469	      0.87637119	      0.17221525	    -28.15280719	      6.49571901	    -21.15512332	      1.39324471	      6.10300014	      0.02431671	     20.42380289	     36.48238892	     -9.51368653	     13.75063989	     -0.79853747	    -12.60650163	     24.25273668	     -6.78741182	      0.42329011	     18.38401330	     19.67654753	     -9.51368653	    -36.97706792	      5.12954202	      5.90555413	      7.61882023	    -20.13653604	      5.12892578	     48.15964623	     90.00000001	      0.00000000	      0.00000000	      4.58906526	    -13.55675831	      5.87222005	     43.28323085	     90.00000001	      0.00000000	      0.00000000
      0.02000000	     12.50586277	     -1.83076999	      6.91153028	     -2.57347883	      0.87380067	      0.17129811	    -28.69343382	      6.98803888	    -21.85724160	      1.42424028	      6.13390039	      0.02485768	     20.62122075	     36.84502451	     -9.45183854	     14.72711456	     -0.82963689	    -11.80991580	     21.94733646	     -5.97701351	      0.38305328	     17.36497200	     20.65488677	     -9.45183854	    -36.60961947	      5.50993640	      6.01796861	      8.01708610	    -20.29834003	      4.33518949	     48.47920614	     90.00000001	      0.00000000	      0.00000000	      3.89446830	    -13.30411337	      5.24473219	     42.80074532	     90.00000001	      0.00000000	      0.00000000
      0.03000000	     12.17390818	     -2.25820114	      7.07242424	     -2.56208638	      0.87117700	      0.17038903	    -29.07117542	      7.54645657	    -22.36343057	      1.57970164	      6.04686924	      0.02757099	     20.80869190	     37.08534603	     -9.39436942	     15.72349049	     -0.95346978	    -11.02996959	     19.79151983	     -5.19216990	      0.34542718	     16.48456880	     21.62591485	     -9.39436942	    -36.17033627	      5.94698041	      6.16035331	      8.36040812	    -20.44711498	      3.51969784	     48.78458464	     90.00000001	      0.00000000	      0.00000000	      3.23954196	    -13.01458794	      4.64298757	     42.23860903	     90.00000001	      0.00000000	      0.00000000
      0.04000000	     11.80523191	     -2.72183869	      7.16826918	     -2.55066130	      0.86858126	      0.16964474	    -29.32056520	      8.11769271	    -22.69591920	      1.86083209	      5.85820161	      0.03247765	     20.99748295	     37.27842505	     -9.33615421	     16.71810613	     -1.13614919	    -10.34777190	     17.85816636	     -4.49755134	      0.31168380	     15.80660448	     22.55883537	     -9.33615421	    -35.70652391	      6.36259722	      6.33643630	      8.66438176	    -20.53709881	      2.70590260	     49.07467227	     90.00000001	      0.00000000	      0.00000000	      2.62909744	    -12.71781849	      4.02804782	     41.60921433	     90.00000001	      0.00000000	      0.00000000
      0.05000000	     11.43222568	     -3.20003163	      7.19730761	     -2.53913814	      0.86608910	      0.16897767	    -29.46460048	      8.65078590	    -22.87017330	      2.33714930	      5.58539225	      0.04079095	     21.19399935	     37.41145153	     -9.26867623	     17.66033395	     -1.35795925	     -9.79084462	     16.18850911	     -3.92012529	      0.28254278	     15.31667058	     23.43577797	     -9.26867623	    -35.23986609	      6.75499546	      6.54395232	      8.90653389	    -20.61297790	      1.91795232	     49.33619645	     90.00000001	      0.00000000	      0.00000000	      2.05897529	    -12.40778315	      3.41018904	     40.94333931	     90.00000001	      0.00000000	      0.00000000
      0.06000000	     11.08306439	     -3.72643163	      7.14650901	     -2.52753487	      0.86377328	      0.16850030	    -29.55257701	      9.21897873	    -22.72965514	      2.92151090	      5.16549908	      0.05098998	     21.37183835	     37.41300294	     -9.22435536	     18.52020103	     -1.67994228	     -9.26119336	     14.82759366	     -3.41605562	      0.25879033	     15.07295331	     24.18551646	     -9.22435536	    -34.79998824	      7.14722472	      6.81042671	      9.09541607	    -20.73090181	      1.40241206	     49.56492110	     90.00000001	      0.00000000	      0.00000000	      1.51349047	    -12.18143362	      3.05788576	     40.30830299	     90.00000001	      0.00000000	      0.00000000
      0.07000000	     10.74827825	     -4.19142431	      7.01429926	     -2.51572758	      0.86163440	      0.16803846	    -29.61120068	      9.62532025	    -22.48236530	      3.65640833	      4.78517309	      0.06381636	     21.47599895	     37.31400711	     -9.18996561	     19.32807327	     -1.93984436	     -8.98160667	     13.89220099	     -3.12352171	      0.24246465	     14.96623091	     24.60077294	     -9.18996561	    -34.36908022	      7.45159948	      7.05136716	      9.24644383	    -20.79234491	      0.98480894	     49.76992450	     90.00000001	      0.00000000	      0.00000000	      0.94207852	    -11.97240224	      2.78996386	     39.72820236	     90.00000001	      0.00000000	      0.00000000
      0.08000000	     10.52064463	     -4.55818717	      6.76286369	     -2.50368574	      0.85991257	      0.16768350	    -29.65386689	      9.83185357	    -22.39239464	      4.75662778	      4.32072753	      0.08301882	     21.62670120	     37.48859474	     -9.15594178	     19.81197943	     -2.14799449	     -8.65156512	     13.09846054	     -2.92009386	      0.22861126	     14.88342525	     25.37546960	     -9.15594178	    -34.06378837	      7.59459282	      7.38595028	      9.26787512	    -20.81459057	      0.34206625	     49.97930272	     90.00000001	      0.00000000	      0.00000000	      0.54936369	    -11.68807068	      2.28213781	     38.92394096	     90.00000001	      0.00000000	      0.00000000
      0.09000000	     10.30007120	     -4.74844720	      6.41994312	     -2.49124827	      0.85837347	      0.16719363	    -29.68757553	      9.70450006	    -22.51605702	      6.04230819	      3.97167459	      0.10545817	     21.82252996	     37.75833850	     -9.11116205	     20.24848123	     -2.17774557	     -8.79221921	     12.81343937	     -2.94076071	      0.22363671	     14.89855539	     26.13420912	     -9.11116205	    -33.75923563	      7.54130476	      7.64173656	      9.19264035	    -20.72236562	     -0.41526786	     50.23109303	     90.00000001	      0.00000000	      0.00000000	      0.14956638	    -11.36175562	      1.46655481	     38.05267388	     90.00000001	      0.00000000	      0.00000000
      0.10000000	      9.93576525	     -4.93687857	      6.19800254	     -2.47845294	      0.85670062	      0.16671331	    -29.72802691	      9.70786778	    -22.11591281	      6.86341929	      3.59728046	      0.11978926	     21.62923924	     37.58147292	     -9.10270982	     20.80199718	     -2.14942812	     -8.51093636	     12.94607837	     -3.01708281	      0.22595169	     14.81173632	     26.08688869	     -9.10270982	    -33.22068800	      7.49119852	      7.70426340	      9.04368466	    -20.70143047	     -0.47231526	     50.24868506	     90.00000001	      0.00000000	      0.00000000	     -0.51661074	    -11.35494427	      1.42075289	     37.78841803	     90.00000001	      0.00000000	      0.00000000
      0.11000000	      9.93098369	     -5.12707017	      5.79384830	     -2.46566136	      0.85590343	      0.16615045	    -29.74286918	      9.45176285	    -22.22744596	      8.73317005	      3.15437146	      0.15242257	     21.58698733	     37.88580599	     -9.06786911	     20.93293881	     -2.20619839	     -8.62659668	     13.53464292	     -3.31279204	      0.23622408	     14.98814315	     26.41225792	     -9.06786911	    -33.13957591	      7.44329329	      8.01823143	      8.93077130	    -20.62882135	     -1.03110690	     50.34439508	     90.00000001	      0.00000000	      0.00000000	     -0.67462010	    -11.02580698	      0.73943212	     36.62265493	     90.00000001	      0.00000000	      0.00000000
      0.12000000	      9.73156338	     -5.19860208	      5.54885927	     -2.45252017	      0.85494315	      0.16536665	    -29.77024726	      9.23669326	    -21.79692905	      9.98006863	      2.73356632	      0.17418506	     21.22762537	     37.84140948	     -9.05384343	     21.13725745	     -1.99846234	     -8.21740262	     14.25164451	     -3.70622689	      0.24873812	     14.82483977	     26.42966454	     -9.05384343	    -32.78836884	      7.31194371	      8.00211389	      8.74114580	    -20.50824609	     -1.16434808	     50.31315925	     90.00000001	      0.00000000	      0.00000000	     -1.15867960	    -10.94950577	      0.55410943	     36.18355827	     90.00000001	      0.00000000	      0.00000000
      0.13000000	      9.62076132	     -5.05232801	      5.25549177	     -2.43871820	      0.85422842	      0.16439733	    -29.78236287	      8.62174494	    -22.39634529	     11.73195166	      2.35890926	      0.20476118	     20.87542840	     38.18863197	     -8.97179834	     21.33602703	     -1.64106933	     -8.83064450	     15.59947176	     -4.31427167	      0.27226214	     14.83286954	     26.94079237	     -8.97179834	    -32.46121282	      6.95824994	      7.95233989	      8.37095600	    -20.25450345	     -1.63960439	     50.24113742	     90.00000001	      0.00000000	      0.00000000	     -1.42789851	    -10.64952377	     -0.64349358	     35.21586325	     90.00000001	      0.00000000	      0.00000000
